<svg width="102" height="100" viewBox="0 0 102 100" fill="none" xmlns="http://www.w3.org/2000/svg">
<g clip-path="url(#clip0_241_38)">
<path d="M85.0664 0H16.9336C7.58143 0 0 7.61116 0 17V82.84C0 92.2289 7.58143 99.84 16.9336 99.84H85.0664C94.4186 99.84 102 92.2289 102 82.84V17C102 7.61116 94.4186 0 85.0664 0Z" fill="#00005B"/>
<path d="M40.9774 59.7346H25.171L21.9548 69.783C21.9136 69.9553 21.8171 70.1091 21.6803 70.2209C21.5434 70.3328 21.3738 70.3963 21.1974 70.4019L13.1283 70.4014C12.6714 70.4014 12.5117 70.1494 12.6493 69.6454L26.3345 30.2418L26.4711 29.8278L26.5166 29.6862L26.6082 29.3902C26.6536 29.2374 26.699 29.0754 26.7449 28.8998C26.9242 27.9834 27.0158 27.0518 27.0186 26.1178C27.0093 26.0525 27.0154 25.986 27.0362 25.9234C27.057 25.8608 27.092 25.804 27.1384 25.7574C27.1849 25.7107 27.2415 25.6756 27.3038 25.6547C27.3661 25.6338 27.4325 25.6278 27.4975 25.637H38.3772C38.696 25.637 38.8785 25.7516 38.9247 25.9806L54.457 69.7146C54.5938 70.1728 54.457 70.4017 54.0466 70.4014H45.1511C44.9984 70.4182 44.8448 70.3787 44.7189 70.2902C44.5931 70.2018 44.5035 70.0704 44.467 69.9206L40.9774 59.7346ZM27.6346 51.2622H38.4458L38.2916 50.7514L38.0441 49.9426L37.682 48.7842L36.9867 46.5974L36.3245 44.4958L35.0925 40.5802C34.7521 39.4994 34.4254 38.4142 34.1124 37.325L33.7625 36.0866L33.3848 34.7294L33.0398 33.4706H32.9712C32.6288 35.1195 32.2118 36.7518 31.7217 38.3626L31.2596 39.8518L30.1479 43.4518L29.5845 45.2858C29.4828 45.617 29.3812 45.9445 29.2797 46.2682L28.9769 47.2274L28.6757 48.1642L28.3761 49.0778L28.078 49.9686C27.9295 50.4086 27.7817 50.8398 27.6346 51.2622ZM79.6378 55.8238H66.1583C66.3231 57.1627 66.766 58.452 67.4584 59.6082C68.2235 60.7534 69.3056 61.6488 70.5714 62.1842C72.2868 62.9299 74.1424 63.295 76.0113 63.2546C77.494 63.2258 78.9711 63.0631 80.4247 62.7682C81.7248 62.5922 82.9988 62.2589 84.2191 61.7754C84.4472 61.5928 84.5615 61.7072 84.5617 62.1186V68.6446C84.5729 68.8226 84.5374 69.0002 84.4585 69.1598C84.3804 69.2846 84.2752 69.3902 84.1509 69.469C82.7973 70.0709 81.3726 70.497 79.9116 70.737C77.9267 71.1111 75.9093 71.2836 73.89 71.2519C70.7519 71.2519 68.1067 70.7792 65.9543 69.8338L65.7471 69.7407C63.6779 68.8258 61.8503 67.4379 60.4104 65.6878C59.0653 64.0389 58.0646 62.1349 57.468 60.0894C56.8776 58.0704 56.5782 55.9769 56.5791 53.8726C56.5725 51.575 56.9306 49.2909 57.6397 47.1062C58.3225 44.9753 59.4021 42.994 60.8212 41.2674C62.2214 39.5614 63.9719 38.1788 65.9531 37.2142C67.96 36.2302 70.3323 35.877 73.0692 35.877C75.3391 35.82 77.5936 36.2656 79.6725 37.1822C81.4204 37.9305 82.9591 39.0972 84.1541 40.5802C85.2755 42.0322 86.1326 43.6717 86.6858 45.423C87.2246 47.1107 87.5015 48.8716 87.507 50.6438C87.507 51.6518 87.4728 52.5678 87.4046 53.3918L87.3436 54.0974L87.2799 54.767L87.242 55.1062L87.2332 55.1778C87.2155 55.3292 87.143 55.4688 87.0295 55.5701C86.9161 55.6714 86.7695 55.7274 86.6177 55.7274L86.43 55.7314L86.1961 55.7434L86.014 55.7566L85.5885 55.793L85.2148 55.8302C85.113 55.8409 85.0074 55.8509 84.898 55.8602L84.5589 55.887L84.1968 55.911L83.8123 55.931L83.4051 55.9482L83.1927 55.9554L82.7516 55.9674C82.3153 55.9782 81.8683 55.951 81.4097 55.9174L80.714 55.8662C80.356 55.84 79.9968 55.8258 79.6378 55.8238ZM66.1587 49.5658H75.4766L76.2702 49.5606L76.8097 49.553L77.1591 49.545L77.5512 49.5314C77.9021 49.4963 78.2409 49.3836 78.5433 49.2014V48.7894C78.5299 48.2522 78.4378 47.7198 78.27 47.2094C77.9009 46.0375 77.1587 45.0196 76.1574 44.3121C75.1561 43.6046 73.9512 43.2468 72.7277 43.2934C71.5761 43.2236 70.4292 43.4917 69.4267 44.065C68.4243 44.6384 67.6097 45.4921 67.0823 46.5222C66.6133 47.4804 66.3014 48.5079 66.1587 49.5658Z" fill="#9999FF"/>
</g>
<defs>
<clipPath id="clip0_241_38">
<rect width="102" height="100" fill="white"/>
</clipPath>
</defs>
</svg>
