<svg width="22" height="22" viewBox="0 0 22 22" fill="none" xmlns="http://www.w3.org/2000/svg">
<path d="M6.16874 3.52503C6.16874 3.05758 6.35443 2.60928 6.68497 2.27874C7.0155 1.94821 7.46381 1.76251 7.93125 1.76251H13.2188C13.6862 1.76251 14.1345 1.94821 14.4651 2.27874C14.7956 2.60928 14.9813 3.05758 14.9813 3.52503V5.28754H18.5063C18.7401 5.28754 18.9642 5.38039 19.1295 5.54566C19.2948 5.71092 19.3876 5.93508 19.3876 6.1688C19.3876 6.40252 19.2948 6.62668 19.1295 6.79194C18.9642 6.95721 18.7401 7.05006 18.5063 7.05006H17.5643L16.8002 17.7503C16.7686 18.195 16.5696 18.6111 16.2434 18.9149C15.9172 19.2188 15.4879 19.3877 15.0421 19.3877H6.10705C5.66126 19.3877 5.23202 19.2188 4.9058 18.9149C4.57957 18.6111 4.38059 18.195 4.34894 17.7503L3.58665 7.05006H2.64371C2.40998 7.05006 2.18583 6.95721 2.02057 6.79194C1.8553 6.62668 1.76245 6.40252 1.76245 6.1688C1.76245 5.93508 1.8553 5.71092 2.02057 5.54566C2.18583 5.38039 2.40998 5.28754 2.64371 5.28754H6.16874V3.52503ZM7.93125 5.28754H13.2188V3.52503H7.93125V5.28754ZM5.35269 7.05006L6.10793 17.6251H15.043L15.7982 7.05006H5.35269ZM8.81251 8.81257C9.04624 8.81257 9.27039 8.90542 9.43565 9.07069C9.60092 9.23595 9.69377 9.46011 9.69377 9.69383V14.9814C9.69377 15.2151 9.60092 15.4393 9.43565 15.6045C9.27039 15.7698 9.04624 15.8626 8.81251 15.8626C8.57879 15.8626 8.35464 15.7698 8.18937 15.6045C8.0241 15.4393 7.93125 15.2151 7.93125 14.9814V9.69383C7.93125 9.46011 8.0241 9.23595 8.18937 9.07069C8.35464 8.90542 8.57879 8.81257 8.81251 8.81257ZM12.3375 8.81257C12.5713 8.81257 12.7954 8.90542 12.9607 9.07069C13.126 9.23595 13.2188 9.46011 13.2188 9.69383V14.9814C13.2188 15.2151 13.126 15.4393 12.9607 15.6045C12.7954 15.7698 12.5713 15.8626 12.3375 15.8626C12.1038 15.8626 11.8797 15.7698 11.7144 15.6045C11.5491 15.4393 11.4563 15.2151 11.4563 14.9814V9.69383C11.4563 9.46011 11.5491 9.23595 11.7144 9.07069C11.8797 8.90542 12.1038 8.81257 12.3375 8.81257Z" fill="#465155"/>
</svg>
