<svg width="22" height="22" viewBox="0 0 22 22" fill="none" xmlns="http://www.w3.org/2000/svg">
<path d="M6.16867 6.16895H5.28742C4.81997 6.16895 4.37167 6.35464 4.04113 6.68517C3.7106 7.01571 3.5249 7.46401 3.5249 7.93146V15.8628C3.5249 16.3302 3.7106 16.7785 4.04113 17.1091C4.37167 17.4396 4.81997 17.6253 5.28742 17.6253H13.2187C13.6862 17.6253 14.1345 17.4396 14.465 17.1091C14.7956 16.7785 14.9812 16.3302 14.9812 15.8628V14.9815" stroke="#465155" stroke-width="2.11502" stroke-linecap="round" stroke-linejoin="round"/>
<path d="M14.1 4.40714L16.7437 7.05091M17.9643 5.80393C18.3113 5.45685 18.5063 4.98611 18.5063 4.49527C18.5063 4.00442 18.3113 3.53368 17.9643 3.1866C17.6172 2.83952 17.1464 2.64453 16.6556 2.64453C16.1648 2.64453 15.694 2.83952 15.3469 3.1866L7.93115 10.5759V13.2197H10.5749L17.9643 5.80393Z" stroke="#465155" stroke-width="2.11502" stroke-linecap="round" stroke-linejoin="round"/>
</svg>
