<svg width="21" height="21" viewBox="0 0 21 21" fill="none" xmlns="http://www.w3.org/2000/svg">
<g clip-path="url(#clip0_33_7077)">
<path d="M20.5976 10.3619C20.5976 4.63834 15.9864 -0.00128174 10.2988 -0.00128174C4.60873 5.61413e-06 -0.00256348 4.63834 -0.00256348 10.3632C-0.00256348 15.5345 3.76423 19.8214 8.68707 20.5989V13.3576H6.07374V10.3632H8.68964V8.07814C8.68964 5.48155 10.228 4.04744 12.58 4.04744C13.7077 4.04744 14.8857 4.24956 14.8857 4.24956V6.79851H13.5867C12.3084 6.79851 11.9093 7.59796 11.9093 8.418V10.3619H14.7647L14.3089 13.3563H11.908V20.5976C16.8309 19.8201 20.5976 15.5332 20.5976 10.3619Z" fill="#059BE5"/>
</g>
<defs>
<clipPath id="clip0_33_7077">
<rect width="20.5976" height="20.5976" rx="10.2988" fill="white"/>
</clipPath>
</defs>
</svg>
