<svg width="36" height="36" viewBox="0 0 36 36" fill="none" xmlns="http://www.w3.org/2000/svg">
<g clip-path="url(#clip0_247_23)">
<path d="M35.7161 17.8581C35.7161 7.99539 27.7207 0 17.8581 0C7.99539 0 0 7.99539 0 17.8581C0 26.7715 6.53047 34.1595 15.0677 35.4992V23.0202H10.5335V17.8581H15.0677V13.9237C15.0677 9.44803 17.7339 6.97581 21.8131 6.97581C23.7669 6.97581 25.8105 7.3246 25.8105 7.3246V11.7194H23.5587C21.3402 11.7194 20.6484 13.096 20.6484 14.5083V17.8581H25.6012L24.8095 23.0202H20.6484V35.4992C29.1857 34.1595 35.7161 26.7716 35.7161 17.8581Z" fill="#1877F2"/>
<path d="M24.8094 23.0202L25.6012 17.8581H20.6484V14.5083C20.6484 13.0958 21.3402 11.7194 23.5587 11.7194H25.8105V7.32462C25.8105 7.32462 23.7668 6.97583 21.8129 6.97583C17.7339 6.97583 15.0677 9.44806 15.0677 13.9237V17.8581H10.5334V23.0202H15.0677V35.4992C15.9908 35.6438 16.9237 35.7164 17.858 35.7162C18.7924 35.7164 19.7253 35.6438 20.6484 35.4992V23.0202H24.8094Z" fill="white"/>
</g>
<defs>
<clipPath id="clip0_247_23">
<rect width="35.7161" height="35.7161" fill="white"/>
</clipPath>
</defs>
</svg>
