<svg width="100" height="100" viewBox="0 0 100 100" fill="none" xmlns="http://www.w3.org/2000/svg">
<g clip-path="url(#clip0_241_23)">
<path d="M76.5625 0H23.4375C10.4933 0 0 10.4933 0 23.4375V76.5625C0 89.5067 10.4933 100 23.4375 100H76.5625C89.5067 100 100 89.5067 100 76.5625V23.4375C100 10.4933 89.5067 0 76.5625 0Z" fill="#242938"/>
<mask id="mask0_241_23" style="mask-type:luminance" maskUnits="userSpaceOnUse" x="23" y="10" width="53" height="80">
<path d="M23.8281 10.9375H75.9219V89.0625H23.8281V10.9375Z" fill="white"/>
</mask>
<g mask="url(#mask0_241_23)">
<path d="M36.8551 89.0613C44.0426 89.0613 49.8758 83.2281 49.8758 76.0406V63.0195H36.8551C29.6676 63.0195 23.834 68.8531 23.834 76.0406C23.834 83.2281 29.6676 89.0613 36.8551 89.0613Z" fill="#0ACF83"/>
<path d="M23.834 50.0012C23.834 42.8137 29.6676 36.9805 36.8551 36.9805H49.8758V63.0219H36.8551C29.6676 63.0219 23.834 57.1887 23.834 50.0012Z" fill="#A259FF"/>
<path d="M23.834 23.9582C23.834 16.7707 29.6676 10.9375 36.8551 10.9375H49.8758V36.9793H36.8551C29.6676 36.9793 23.834 31.1457 23.834 23.9582Z" fill="#F24E1E"/>
<path d="M49.875 10.9375H62.8957C70.0832 10.9375 75.9168 16.7707 75.9168 23.9582C75.9168 31.1457 70.0832 36.9793 62.8957 36.9793H49.875V10.9375Z" fill="#FF7262"/>
<path d="M75.9168 50.0012C75.9168 57.1887 70.0832 63.0219 62.8957 63.0219C55.7082 63.0219 49.875 57.1887 49.875 50.0012C49.875 42.8137 55.7082 36.9805 62.8957 36.9805C70.0832 36.9805 75.9168 42.8137 75.9168 50.0012Z" fill="#1ABCFE"/>
</g>
</g>
<defs>
<clipPath id="clip0_241_23">
<rect width="100" height="100" fill="white"/>
</clipPath>
</defs>
</svg>
