<svg width="45" height="45" viewBox="0 0 45 45" fill="none" xmlns="http://www.w3.org/2000/svg">
<g clip-path="url(#clip0_247_26)">
<path d="M44.6452 22.8807C44.6452 27.8676 43.2254 32.3522 40.386 36.3345C37.5466 40.3169 33.8797 43.0722 29.3854 44.6006C28.8616 44.7018 28.4791 44.6326 28.2381 44.393C28.1192 44.2772 28.0256 44.1381 27.963 43.9845C27.9004 43.8309 27.8701 43.6659 27.8742 43.5001V37.2118C27.8742 35.2846 27.3705 33.8746 26.363 32.9817C27.3684 32.8783 28.3646 32.6992 29.343 32.4459C30.2225 32.2078 31.1326 31.8209 32.0731 31.2852C32.9754 30.7778 33.7743 30.1054 34.4281 29.3029C35.0576 28.5172 35.571 27.474 35.9684 26.1733C36.3657 24.8726 36.5644 23.3785 36.5644 21.6909C36.5644 19.286 35.7995 17.2398 34.2696 15.5522C34.9839 13.7456 34.9058 11.7194 34.0352 9.47377C33.4935 9.29519 32.7093 9.40457 31.6824 9.80191C30.7513 10.1526 29.8559 10.5913 29.0082 11.1122L27.9032 11.8266C26.0885 11.3083 24.2098 11.0483 22.3226 11.0542C20.4352 11.049 18.5565 11.3097 16.7419 11.8288C16.3379 11.5497 15.9263 11.2817 15.5075 11.0252C14.9941 10.7067 14.1845 10.3243 13.0788 9.87781C11.9761 9.43135 11.1427 9.29742 10.5787 9.476C9.72744 11.7187 9.66047 13.7441 10.3778 15.5522C8.84495 17.2398 8.07854 19.286 8.07854 21.6909C8.07854 23.3785 8.27796 24.8682 8.67679 26.1599C9.07413 27.4501 9.58234 28.4926 10.2014 29.2873C10.8413 30.1009 11.6365 30.7793 12.5408 31.2829C13.4814 31.8187 14.3921 32.2056 15.2731 32.4437C16.1556 32.6848 17.149 32.8641 18.2532 32.9817C17.4793 33.696 17.0046 34.7191 16.829 36.051C16.4131 36.2535 15.9737 36.4034 15.5209 36.4975C14.9754 36.6045 14.4204 36.6546 13.8646 36.647C13.2246 36.647 12.5899 36.4335 11.9604 36.0064C11.3309 35.5778 10.793 34.9572 10.3465 34.1447C9.9998 33.5287 9.51828 32.9991 8.93796 32.5955C8.3665 32.1982 7.88657 31.96 7.49815 31.8812L6.91777 31.7919C6.5115 31.7919 6.23023 31.8365 6.07397 31.9258C5.91772 32.0151 5.86935 32.129 5.92888 32.2674C5.99333 32.4194 6.08148 32.5603 6.19005 32.6848C6.30217 32.8182 6.42953 32.9381 6.56954 33.0419L6.77044 33.1893C7.19754 33.3902 7.61944 33.7682 8.03613 34.3233C8.45282 34.8798 8.75789 35.3858 8.95136 35.8412L9.24155 36.5265C9.49454 37.281 9.92164 37.8919 10.5229 38.3592C11.1241 38.828 11.7729 39.1256 12.4694 39.2521C13.1659 39.3816 13.8393 39.4515 14.4896 39.4619C15.1384 39.4709 15.6764 39.4359 16.1035 39.357L16.771 39.2387C16.771 39.9932 16.7762 40.8772 16.7866 41.8906L16.8 43.4978C16.8 43.855 16.6735 44.1526 16.4205 44.3907C16.1705 44.6318 15.7836 44.7018 15.2597 44.6006C10.7639 43.0707 7.09709 40.3154 4.25915 36.3345C1.41972 32.3507 0 27.8661 0 22.8807C0 18.7287 0.997819 14.9004 2.99346 11.3957C4.92687 7.95725 7.72863 5.08622 11.1189 3.06942C14.4996 1.0343 18.3766 -0.0278489 22.3226 6.37502e-05C26.2693 -0.0282606 30.1471 1.0339 33.5285 3.06942C36.9179 5.08653 39.7189 7.95753 41.6517 11.3957C43.6473 14.9019 44.6452 18.7302 44.6452 22.8807Z" fill="black"/>
</g>
<defs>
<clipPath id="clip0_247_26">
<rect width="44.6452" height="44.6452" fill="white"/>
</clipPath>
</defs>
</svg>
