<svg width="21" height="21" viewBox="0 0 21 21" fill="none" xmlns="http://www.w3.org/2000/svg">
<g clip-path="url(#clip0_33_7073)">
<path fill-rule="evenodd" clip-rule="evenodd" d="M10.2988 0C4.60872 0 0 4.60872 0 10.2988C0 14.856 2.94804 18.7052 7.04182 20.0698C7.55676 20.1599 7.74986 19.851 7.74986 19.5806C7.74986 19.336 7.73699 18.525 7.73699 17.6625C5.14941 18.1388 4.47999 17.0317 4.27401 16.4524C4.15815 16.1563 3.65608 15.2423 3.21838 14.9977C2.85792 14.8046 2.34298 14.3282 3.20551 14.3154C4.01654 14.3025 4.59585 15.062 4.78895 15.371C5.71584 16.9287 7.1963 16.491 7.78848 16.2206C7.8786 15.5512 8.14894 15.1006 8.44503 14.8432C6.15354 14.5857 3.75907 13.6974 3.75907 9.75813C3.75907 8.63813 4.15815 7.71124 4.8147 6.99032C4.71171 6.73285 4.35125 5.67722 4.91769 4.26114C4.91769 4.26114 5.78021 3.99079 7.74986 5.31676C8.57377 5.08504 9.44917 4.96918 10.3246 4.96918C11.2 4.96918 12.0754 5.08504 12.8993 5.31676C14.8689 3.97792 15.7314 4.26114 15.7314 4.26114C16.2979 5.67722 15.9374 6.73285 15.8344 6.99032C16.491 7.71124 16.8901 8.62526 16.8901 9.75813C16.8901 13.7103 14.4827 14.5857 12.1912 14.8432C12.5646 15.165 12.8864 15.7829 12.8864 16.7485C12.8864 18.1259 12.8735 19.233 12.8735 19.5806C12.8735 19.851 13.0666 20.1728 13.5816 20.0698C15.626 19.3796 17.4026 18.0656 18.6612 16.3128C19.9198 14.56 20.597 12.4567 20.5976 10.2988C20.5976 4.60872 15.9889 0 10.2988 0Z" fill="black"/>
</g>
<defs>
<clipPath id="clip0_33_7073">
<rect width="20.5976" height="20.5976" rx="10.2988" fill="white"/>
</clipPath>
</defs>
</svg>
