<svg width="36" height="36" viewBox="0 0 36 36" fill="none" xmlns="http://www.w3.org/2000/svg">
<path opacity="0.987" fill-rule="evenodd" clip-rule="evenodd" d="M16.0923 2.3684C17.7107 2.18758 18.6683 2.18758 20.4073 2.3684C23.4854 2.82399 26.3388 4.24681 28.555 6.43111C27.0574 7.84666 25.5795 9.28289 24.1217 10.7394C21.3299 8.37317 18.2137 7.82701 14.773 9.10089C12.2491 10.2617 10.4916 12.1427 9.50044 14.744C7.8808 13.5382 6.28227 12.3044 4.70555 11.043C4.59597 10.9853 4.47082 10.9642 4.34839 10.9827C6.85298 6.15356 10.7669 3.28139 16.0901 2.36617" fill="#F44336"/>
<path opacity="0.997" fill-rule="evenodd" clip-rule="evenodd" d="M4.34401 10.9826C4.4705 10.9632 4.5903 10.9833 4.7034 11.0429C6.28012 12.3043 7.87866 13.5381 9.49829 14.7439C9.24343 15.7575 9.08276 16.7925 9.01836 17.8356C9.07342 18.8446 9.2334 19.835 9.49829 20.8067L4.46455 24.8137C2.27247 20.2331 2.23229 15.6227 4.34401 10.9826Z" fill="#FFC107"/>
<path opacity="0.999" fill-rule="evenodd" clip-rule="evenodd" d="M28.316 29.6667C26.7487 28.2844 25.1078 26.9878 23.4006 25.7826C25.112 24.5742 26.1508 22.9164 26.5168 20.8091H18.1302V14.9851C22.9668 14.945 27.8011 14.9859 32.6332 15.1079C33.5499 20.0859 32.4911 24.5742 29.4567 28.5729C29.0959 28.9565 28.7137 29.3215 28.316 29.6667Z" fill="#448AFF"/>
<path opacity="0.993" fill-rule="evenodd" clip-rule="evenodd" d="M9.49822 20.8092C11.3287 25.3585 14.6845 27.4822 19.5657 27.1801C20.9359 27.0214 22.2497 26.5428 23.4007 25.7827C25.1091 26.9911 26.7476 28.2858 28.3162 29.6668C25.8309 31.9001 22.6621 33.2252 19.3269 33.4259C18.5691 33.4865 17.8077 33.4865 17.0499 33.4259C11.3681 32.7563 7.17295 29.8856 4.46448 24.8139L9.49822 20.8092Z" fill="#43A047"/>
</svg>
