<svg width="21" height="21" viewBox="0 0 21 21" fill="none" xmlns="http://www.w3.org/2000/svg">
<g clip-path="url(#clip0_33_7066)">
<path d="M20.397 8.28165H19.5674V8.23891H10.2986V12.3584H16.1189C15.2698 14.7564 12.9881 16.4778 10.2986 16.4778C6.88619 16.4778 4.11946 13.7111 4.11946 10.2986C4.11946 6.88619 6.88619 4.11946 10.2986 4.11946C11.8738 4.11946 13.3069 4.71369 14.398 5.68433L17.311 2.77136C15.4716 1.05716 13.0113 0 10.2986 0C4.61122 0 0 4.61122 0 10.2986C0 15.9861 4.61122 20.5973 10.2986 20.5973C15.9861 20.5973 20.5973 15.9861 20.5973 10.2986C20.5973 9.60812 20.5262 8.93407 20.397 8.28165Z" fill="#FFC107"/>
<path d="M1.18671 5.50514L4.57032 7.9866C5.48587 5.71986 7.70317 4.11946 10.2979 4.11946C11.8731 4.11946 13.3061 4.71369 14.3973 5.68433L17.3103 2.77136C15.4709 1.05716 13.0106 0 10.2979 0C6.34221 0 2.91173 2.23326 1.18671 5.50514Z" fill="#FF3D00"/>
<path d="M10.2988 20.5976C12.9589 20.5976 15.376 19.5796 17.2035 17.9241L14.0161 15.2269C12.9474 16.0397 11.6415 16.4793 10.2988 16.4782C7.62012 16.4782 5.34567 14.7702 4.48882 12.3865L1.13043 14.9741C2.83486 18.3093 6.29623 20.5976 10.2988 20.5976Z" fill="#4CAF50"/>
<path d="M20.397 8.28169H19.5674V8.23895H10.2986V12.3584H16.1189C15.7127 13.4997 14.9811 14.497 14.0144 15.2271L14.0159 15.2261L17.2034 17.9233C16.9778 18.1282 20.5973 15.448 20.5973 10.2987C20.5973 9.60816 20.5262 8.93411 20.397 8.28169Z" fill="#1976D2"/>
</g>
<defs>
<clipPath id="clip0_33_7066">
<rect width="20.5976" height="20.5976" rx="10.2988" fill="white"/>
</clipPath>
</defs>
</svg>
