<svg width="474" height="290" viewBox="0 0 474 290" fill="none" xmlns="http://www.w3.org/2000/svg">
<g filter="url(#filter0_d_1_200)">
<rect width="466" height="282" rx="17" transform="matrix(-1 0 0 1 470 0)" fill="#0B1739" fill-opacity="0.1"/>
<path d="M65.0606 189.124L436.48 189.124" stroke="#0B1739" stroke-width="0.6"/>
<path d="M65.0606 164.822L436.48 164.821" stroke="#0B1739" stroke-width="0.6"/>
<path d="M65.0606 140.52L436.48 140.52" stroke="#0B1739" stroke-width="0.6"/>
<path d="M65.0606 116.217L436.48 116.217" stroke="#0B1739" stroke-width="0.6"/>
<path d="M152.878 189.124L152.878 116.217" stroke="#0B1739" stroke-width="0.6" stroke-dasharray="5 5"/>
<path d="M85.0654 189.124L85.0654 116.217" stroke="#0B1739" stroke-width="0.6" stroke-dasharray="5 5"/>
<path d="M220.689 189.124L220.689 116.217" stroke="#0B1739" stroke-width="0.6" stroke-dasharray="5 5"/>
<path d="M288.502 189.124L288.502 116.217" stroke="#0B1739" stroke-width="0.6" stroke-dasharray="5 5"/>
<path d="M356.312 189.124L356.312 116.217" stroke="#0B1739" stroke-width="0.6" stroke-dasharray="5 5"/>
<path d="M424.125 189.124L424.125 116.217" stroke="#0B1739" stroke-width="0.6" stroke-dasharray="5 5"/>
<path d="M49.4827 195.15C50.7227 195.15 51.5627 194.118 51.5627 192.198C51.5627 190.326 50.7627 189.254 49.4907 189.254C48.2267 189.254 47.3787 190.278 47.3787 192.19C47.3787 194.07 48.1947 195.15 49.4827 195.15ZM49.4747 194.446C48.6907 194.446 48.2107 193.782 48.2107 192.198C48.2107 190.606 48.6907 189.95 49.4747 189.95C50.2587 189.95 50.7387 190.614 50.7387 192.198C50.7387 193.782 50.2587 194.446 49.4747 194.446Z" fill="#101F26"/>
<path d="M42.0112 168.759H42.8352V162.991H42.0432C41.9872 163.567 41.6112 163.951 40.8432 163.951H40.6192V164.583H42.0112V168.759ZM46.021 168.823C47.261 168.823 48.101 167.791 48.101 165.871C48.101 163.999 47.301 162.927 46.029 162.927C44.765 162.927 43.917 163.951 43.917 165.863C43.917 167.743 44.733 168.823 46.021 168.823ZM46.013 168.119C45.229 168.119 44.749 167.455 44.749 165.871C44.749 164.279 45.229 163.623 46.013 163.623C46.797 163.623 47.277 164.287 47.277 165.871C47.277 167.455 46.797 168.119 46.013 168.119ZM50.771 168.823C52.011 168.823 52.851 167.791 52.851 165.871C52.851 163.999 52.051 162.927 50.779 162.927C49.515 162.927 48.667 163.951 48.667 165.863C48.667 167.743 49.483 168.823 50.771 168.823ZM50.763 168.119C49.979 168.119 49.499 167.455 49.499 165.871C49.499 164.279 49.979 163.623 50.763 163.623C51.547 163.623 52.027 164.287 52.027 165.871C52.027 167.455 51.547 168.119 50.763 168.119Z" fill="#101F26"/>
<path d="M39.2778 142.432H43.1498V141.704H40.3098C40.5978 140.456 43.0858 140.024 43.0858 138.264C43.0858 137.256 42.3498 136.592 41.2298 136.592C40.0538 136.592 39.2618 137.328 39.2938 138.456H40.1018C40.0618 137.736 40.5178 137.304 41.1818 137.304C41.8138 137.304 42.2298 137.696 42.2298 138.304C42.2298 139.776 39.2778 140.04 39.2778 142.288V142.432ZM45.9274 142.504C47.1834 142.504 47.9834 141.704 47.9834 140.512C47.9834 139.376 47.2554 138.584 46.1114 138.584C45.5914 138.584 45.1274 138.792 44.8954 139.112L44.8474 139.096L44.9274 137.384H47.6794V136.664H44.1994L44.0634 139.936H44.8474C45.0074 139.552 45.3914 139.28 45.9434 139.28C46.6634 139.28 47.1354 139.76 47.1354 140.544C47.1354 141.272 46.6954 141.776 45.9354 141.776C45.2314 141.776 44.7754 141.336 44.7754 140.672H43.9514C43.9594 141.768 44.7274 142.504 45.9274 142.504ZM50.7709 142.496C52.0109 142.496 52.8509 141.464 52.8509 139.544C52.8509 137.672 52.0509 136.6 50.7789 136.6C49.5149 136.6 48.6669 137.624 48.6669 139.536C48.6669 141.416 49.4829 142.496 50.7709 142.496ZM50.7629 141.792C49.9789 141.792 49.4989 141.128 49.4989 139.544C49.4989 137.952 49.9789 137.296 50.7629 137.296C51.5469 137.296 52.0269 137.96 52.0269 139.544C52.0269 141.128 51.5469 141.792 50.7629 141.792Z" fill="#101F26"/>
<path d="M41.1774 116.176C42.4334 116.176 43.2334 115.376 43.2334 114.184C43.2334 113.048 42.5054 112.256 41.3614 112.256C40.8414 112.256 40.3774 112.464 40.1454 112.784L40.0974 112.768L40.1774 111.056H42.9294V110.336H39.4494L39.3134 113.608H40.0974C40.2574 113.224 40.6414 112.952 41.1934 112.952C41.9134 112.952 42.3854 113.432 42.3854 114.216C42.3854 114.944 41.9454 115.448 41.1854 115.448C40.4814 115.448 40.0254 115.008 40.0254 114.344H39.2014C39.2094 115.44 39.9774 116.176 41.1774 116.176ZM46.0209 116.168C47.2609 116.168 48.1009 115.136 48.1009 113.216C48.1009 111.344 47.3009 110.272 46.0289 110.272C44.7649 110.272 43.9169 111.296 43.9169 113.208C43.9169 115.088 44.7329 116.168 46.0209 116.168ZM46.0129 115.464C45.2289 115.464 44.7489 114.8 44.7489 113.216C44.7489 111.624 45.2289 110.968 46.0129 110.968C46.7969 110.968 47.2769 111.632 47.2769 113.216C47.2769 114.8 46.7969 115.464 46.0129 115.464ZM50.7709 116.168C52.0109 116.168 52.8509 115.136 52.8509 113.216C52.8509 111.344 52.0509 110.272 50.7789 110.272C49.5149 110.272 48.6669 111.296 48.6669 113.208C48.6669 115.088 49.4829 116.168 50.7709 116.168ZM50.7629 115.464C49.9789 115.464 49.4989 114.8 49.4989 113.216C49.4989 111.624 49.9789 110.968 50.7629 110.968C51.5469 110.968 52.0269 111.632 52.0269 113.216C52.0269 114.8 51.5469 115.464 50.7629 115.464Z" fill="#101F26"/>
<path d="M65.0606 189.124L85.3714 183.875C88.5795 183.047 91.4754 181.298 93.703 178.845L97.0426 175.168C102.475 169.187 111.367 167.855 118.313 171.983L119.541 172.714C126.6 176.909 135.656 175.394 140.966 169.131C146.133 163.035 154.876 161.416 161.883 165.258L172.035 170.825C173.585 171.674 175.258 172.277 176.994 172.612L208.986 178.773C213.03 179.551 217.219 178.836 220.775 176.759L245.199 162.493C247.306 161.262 249.124 159.592 250.528 157.596L259.741 144.502C266.552 134.823 280.924 134.892 287.642 144.637L308.744 175.253C311.917 179.856 317.151 182.605 322.741 182.605H352.766C356.528 182.605 360.185 181.357 363.162 179.056L377.767 167.768C384.514 162.553 394.08 163.144 400.134 169.148L408.382 177.328C410.143 179.075 412.265 180.416 414.6 181.255L436.48 189.124" stroke="#101F26" stroke-width="1.2" stroke-linecap="round"/>
<path d="M76.7604 208.725H77.5844V202.957H76.7924C76.7364 203.533 76.3604 203.917 75.5924 203.917H75.3684V204.549H76.7604V208.725ZM78.7302 208.725H82.6022V207.997H79.7622C80.0502 206.749 82.5382 206.317 82.5382 204.557C82.5382 203.549 81.8022 202.885 80.6822 202.885C79.5062 202.885 78.7142 203.621 78.7462 204.749H79.5542C79.5142 204.029 79.9702 203.597 80.6342 203.597C81.2662 203.597 81.6822 203.989 81.6822 204.597C81.6822 206.069 78.7302 206.333 78.7302 208.581V208.725ZM84.8009 208.725H85.7129L86.1929 207.365H88.7769L89.2569 208.725H90.1689L88.0969 202.893H86.8729L84.8009 208.725ZM86.4009 206.685L87.0569 204.885L87.4649 203.693H87.5129L87.9209 204.885L88.5609 206.685H86.4009ZM90.8871 208.725H91.7431V206.005L91.7271 203.813H91.7831L93.5191 208.725H94.2151L95.9511 203.813H96.0071L95.9831 205.997V208.725H96.8311V202.893H95.5031L93.8791 207.357H93.8471L92.2231 202.893H90.8871V208.725Z" fill="#101F26"/>
<path d="M192.342 208.781C193.582 208.781 194.422 208.165 194.422 207.189C194.422 206.485 194.006 205.917 193.262 205.829V205.789C193.99 205.661 194.326 205.093 194.326 204.461C194.326 203.525 193.574 202.893 192.342 202.893C191.118 202.893 190.366 203.517 190.366 204.453C190.366 205.093 190.718 205.653 191.438 205.789V205.829C190.686 205.933 190.262 206.525 190.262 207.197C190.262 208.173 191.102 208.781 192.342 208.781ZM192.342 205.485C191.574 205.485 191.214 205.093 191.214 204.533C191.214 203.949 191.638 203.581 192.342 203.581C193.038 203.581 193.486 203.941 193.486 204.533C193.486 205.069 193.142 205.485 192.342 205.485ZM192.342 208.069C191.63 208.069 191.15 207.709 191.15 207.085C191.15 206.565 191.518 206.149 192.342 206.149C193.158 206.149 193.542 206.541 193.542 207.085C193.542 207.693 193.078 208.069 192.342 208.069ZM196.59 208.725H197.502L197.982 207.365H200.566L201.046 208.725H201.958L199.886 202.893H198.662L196.59 208.725ZM198.19 206.685L198.846 204.885L199.254 203.693H199.302L199.71 204.885L200.35 206.685H198.19ZM202.676 208.725H203.532V206.005L203.516 203.813H203.572L205.308 208.725H206.004L207.74 203.813H207.796L207.772 205.997V208.725H208.62V202.893H207.292L205.668 207.357H205.636L204.012 202.893H202.676V208.725Z" fill="#101F26"/>
<path d="M304.867 208.725H305.691V207.309H306.475V206.629H305.691V202.957H304.619L302.035 206.669V207.309H304.867V208.725ZM302.875 206.629L304.867 203.789V206.629H302.875ZM309.27 208.725H310.142V206.605H311.622C312.894 206.613 313.662 205.869 313.662 204.749C313.662 203.565 312.87 202.893 311.63 202.893H309.27V208.725ZM311.494 205.909H310.142V203.645H311.494C312.246 203.645 312.774 203.997 312.774 204.773C312.774 205.549 312.254 205.917 311.494 205.909ZM314.582 208.725H315.438V206.005L315.422 203.813H315.478L317.214 208.725H317.91L319.646 203.813H319.702L319.678 205.997V208.725H320.526V202.893H319.198L317.574 207.357H317.542L315.918 202.893H314.582V208.725Z" fill="#101F26"/>
<path d="M415.104 208.725H415.928V202.957H415.136C415.08 203.533 414.704 203.917 413.936 203.917H413.712V204.549H415.104V208.725ZM418.362 208.725H419.186V202.957H418.394C418.338 203.533 417.962 203.917 417.194 203.917H416.97V204.549H418.362V208.725ZM422.481 208.725H423.353V206.605H424.833C426.105 206.613 426.873 205.869 426.873 204.749C426.873 203.565 426.081 202.893 424.841 202.893H422.481V208.725ZM424.705 205.909H423.353V203.645H424.705C425.457 203.645 425.985 203.997 425.985 204.773C425.985 205.549 425.465 205.917 424.705 205.909ZM427.793 208.725H428.649V206.005L428.633 203.813H428.689L430.425 208.725H431.121L432.857 203.813H432.913L432.889 205.997V208.725H433.737V202.893H432.409L430.785 207.357H430.753L429.129 202.893H427.793V208.725Z" fill="#101F26"/>
<path d="M38.5328 30.4181H41.1042C41.2179 30.4181 41.3269 30.373 41.4073 30.2926C41.4876 30.2122 41.5328 30.1032 41.5328 29.9895C41.5328 29.8759 41.4876 29.7669 41.4073 29.6865C41.3269 29.6061 41.2179 29.561 41.1042 29.561H38.5328C38.4191 29.561 38.3101 29.6061 38.2297 29.6865C38.1493 29.7669 38.1042 29.8759 38.1042 29.9895C38.1042 30.1032 38.1493 30.2122 38.2297 30.2926C38.3101 30.373 38.4191 30.4181 38.5328 30.4181Z" fill="#101F26"/>
<path d="M39.8187 31.2752C38.8015 31.2752 37.8072 31.5768 36.9614 32.1419C36.1157 32.707 35.4565 33.5103 35.0673 34.45C34.678 35.3897 34.5762 36.4238 34.7746 37.4214C34.973 38.4191 35.4629 39.3354 36.1821 40.0547C36.9013 40.7739 37.8177 41.2637 38.8153 41.4622C39.813 41.6606 40.847 41.5588 41.7868 41.1695C42.7265 40.7803 43.5297 40.1211 44.0948 39.2753C44.6599 38.4296 44.9616 37.4353 44.9616 36.4181C44.9587 35.055 44.416 33.7485 43.4521 32.7847C42.4883 31.8208 41.1818 31.278 39.8187 31.2752ZM42.2455 34.602L40.124 36.7235C40.0421 36.8027 39.9326 36.8469 39.8187 36.8469C39.7047 36.8469 39.5952 36.8027 39.5133 36.7235C39.4328 36.6422 39.3877 36.5325 39.3877 36.4181C39.3877 36.3037 39.4328 36.194 39.5133 36.1127L41.6348 33.9913C41.6732 33.9445 41.721 33.9062 41.7751 33.879C41.8292 33.8518 41.8884 33.8362 41.9489 33.8332C42.0094 33.8302 42.0698 33.8399 42.1264 33.8617C42.1829 33.8835 42.2342 33.9169 42.277 33.9598C42.3199 34.0026 42.3532 34.0539 42.375 34.1104C42.3968 34.1669 42.4066 34.2274 42.4036 34.2879C42.4006 34.3484 42.385 34.4076 42.3578 34.4617C42.3306 34.5158 42.2923 34.5636 42.2455 34.602Z" fill="#101F26"/>
<path d="M54.6734 39.561H55.9814V31.953H58.7534V30.813H51.9254V31.953H54.6734V39.561ZM61.2168 39.669C63.1248 39.669 64.3128 38.337 64.3128 36.393C64.3128 34.377 63.0648 33.117 61.2168 33.117C59.2968 33.117 58.1088 34.449 58.1088 36.405C58.1088 38.397 59.3568 39.669 61.2168 39.669ZM61.2168 38.637C60.0888 38.637 59.3688 37.821 59.3688 36.405C59.3688 34.941 60.1128 34.137 61.2168 34.137C62.3568 34.137 63.0528 34.965 63.0528 36.393C63.0528 37.833 62.3208 38.637 61.2168 38.637ZM67.4192 39.561H68.6912V38.541H67.8272C67.4312 38.541 67.2872 38.433 67.2872 38.013V34.221H68.6912V33.213H67.2872V31.233L66.0512 31.377V33.213H64.8512V34.221H66.0512V38.241C66.0512 39.093 66.3752 39.561 67.4192 39.561ZM71.9039 39.669C72.9719 39.669 73.7639 39.117 74.0639 38.301H74.1359V39.561H75.3719V33.213H74.1839L74.1359 34.461H74.0639C73.7639 33.645 72.9719 33.105 71.9039 33.105C70.3559 33.105 69.3119 34.257 69.3119 36.381C69.3119 38.505 70.3559 39.669 71.9039 39.669ZM72.3359 38.649C71.2799 38.649 70.5839 37.869 70.5839 36.381C70.5839 34.881 71.2799 34.113 72.3359 34.113C73.5119 34.113 74.1239 35.049 74.1239 36.021V36.741C74.1239 37.725 73.5119 38.649 72.3359 38.649ZM77.1033 39.561H78.3393V30.813H77.1033V39.561ZM85.104 39.681C86.76 39.681 87.792 39.057 87.792 37.761C87.792 36.309 86.688 36.021 85.368 35.841C84.288 35.697 83.808 35.505 83.808 34.881C83.808 34.341 84.264 33.969 85.104 33.969C85.92 33.969 86.436 34.317 86.448 35.085H87.66C87.636 33.849 86.688 33.093 85.128 33.093C83.592 33.093 82.572 33.789 82.572 35.001C82.572 36.297 83.568 36.633 85.008 36.837C86.076 36.993 86.532 37.161 86.532 37.869C86.532 38.457 86.052 38.805 85.14 38.805C84.252 38.805 83.616 38.433 83.616 37.569H82.392C82.392 38.829 83.364 39.681 85.104 39.681ZM91.8956 39.669C93.3956 39.669 94.5476 38.853 94.7156 37.605H93.5396C93.3836 38.265 92.7476 38.685 91.8956 38.685C90.7916 38.685 90.0716 37.941 90.0476 36.633H94.7516C94.9436 34.641 93.9356 33.117 91.8476 33.117C89.9876 33.117 88.8236 34.413 88.8236 36.417C88.8236 38.373 89.9876 39.669 91.8956 39.669ZM91.8356 34.089C92.7716 34.089 93.5036 34.581 93.5396 35.757H90.0716C90.1676 34.725 90.8396 34.089 91.8356 34.089ZM98.4516 39.681C100.108 39.681 101.14 39.057 101.14 37.761C101.14 36.309 100.036 36.021 98.7156 35.841C97.6356 35.697 97.1556 35.505 97.1556 34.881C97.1556 34.341 97.6116 33.969 98.4516 33.969C99.2676 33.969 99.7836 34.317 99.7956 35.085H101.008C100.984 33.849 100.036 33.093 98.4756 33.093C96.9396 33.093 95.9196 33.789 95.9196 35.001C95.9196 36.297 96.9156 36.633 98.3556 36.837C99.4236 36.993 99.8796 37.161 99.8796 37.869C99.8796 38.457 99.3996 38.805 98.4876 38.805C97.5996 38.805 96.9636 38.433 96.9636 37.569H95.7396C95.7396 38.829 96.7116 39.681 98.4516 39.681ZM104.909 39.681C106.565 39.681 107.597 39.057 107.597 37.761C107.597 36.309 106.493 36.021 105.173 35.841C104.093 35.697 103.613 35.505 103.613 34.881C103.613 34.341 104.069 33.969 104.909 33.969C105.725 33.969 106.241 34.317 106.253 35.085H107.465C107.441 33.849 106.493 33.093 104.933 33.093C103.397 33.093 102.377 33.789 102.377 35.001C102.377 36.297 103.373 36.633 104.813 36.837C105.881 36.993 106.337 37.161 106.337 37.869C106.337 38.457 105.857 38.805 104.945 38.805C104.057 38.805 103.421 38.433 103.421 37.569H102.197C102.197 38.829 103.169 39.681 104.909 39.681ZM109.002 32.241H110.238V30.813H109.002V32.241ZM109.002 39.561H110.238V33.213H109.002V39.561ZM114.631 39.669C116.539 39.669 117.727 38.337 117.727 36.393C117.727 34.377 116.479 33.117 114.631 33.117C112.711 33.117 111.523 34.449 111.523 36.405C111.523 38.397 112.771 39.669 114.631 39.669ZM114.631 38.637C113.503 38.637 112.783 37.821 112.783 36.405C112.783 34.941 113.527 34.137 114.631 34.137C115.771 34.137 116.467 34.965 116.467 36.393C116.467 37.833 115.735 38.637 114.631 38.637ZM119.021 39.561H120.245V36.093C120.245 35.001 120.929 34.137 122.021 34.137C123.029 34.137 123.497 34.749 123.497 36.045V39.561H124.733V35.793C124.733 33.849 123.761 33.117 122.465 33.117C121.529 33.117 120.689 33.573 120.317 34.473H120.245L120.197 33.213H119.021V39.561ZM128.768 39.681C130.424 39.681 131.456 39.057 131.456 37.761C131.456 36.309 130.352 36.021 129.032 35.841C127.952 35.697 127.472 35.505 127.472 34.881C127.472 34.341 127.928 33.969 128.768 33.969C129.584 33.969 130.1 34.317 130.112 35.085H131.324C131.3 33.849 130.352 33.093 128.792 33.093C127.256 33.093 126.236 33.789 126.236 35.001C126.236 36.297 127.232 36.633 128.672 36.837C129.74 36.993 130.196 37.161 130.196 37.869C130.196 38.457 129.716 38.805 128.804 38.805C127.916 38.805 127.28 38.433 127.28 37.569H126.056C126.056 38.829 127.028 39.681 128.768 39.681Z" fill="#101F26"/>
<path d="M43.0814 75.8502H46.0814V71.7462H48.3614L48.3854 69.2742H46.0814V58.5462H42.2654L34.7774 69.4662V71.7462H43.0574L43.0814 75.8502ZM37.8014 69.2742L43.0814 61.6902V69.2742H37.8014ZM56.7914 76.0422C60.6314 76.0422 63.2234 72.9222 63.2234 67.1862C63.2234 61.6422 60.7994 58.3302 56.8394 58.3302C52.9514 58.3302 50.3834 61.4502 50.3834 67.1622C50.3834 72.7302 52.8074 76.0422 56.7914 76.0422ZM56.8154 73.4982C54.7274 73.4982 53.3834 71.8422 53.3834 67.1622C53.3834 62.5062 54.7274 60.8742 56.8154 60.8742C58.8554 60.8742 60.2234 62.5062 60.2234 67.1622C60.2234 71.8422 58.8554 73.4982 56.8154 73.4982ZM71.2289 76.0422C75.0689 76.0422 77.6609 72.9222 77.6609 67.1862C77.6609 61.6422 75.2369 58.3302 71.2769 58.3302C67.3889 58.3302 64.8209 61.4502 64.8209 67.1622C64.8209 72.7302 67.2449 76.0422 71.2289 76.0422ZM71.2529 73.4982C69.1649 73.4982 67.8209 71.8422 67.8209 67.1622C67.8209 62.5062 69.1649 60.8742 71.2529 60.8742C73.2929 60.8742 74.6609 62.5062 74.6609 67.1622C74.6609 71.8422 73.2929 73.4982 71.2529 73.4982Z" fill="#577D8F"/>
<rect x="84.8174" y="58.8502" width="45" height="18" rx="2" fill="#05C168" fill-opacity="0.2"/>
<rect x="85.1174" y="59.1502" width="44.4" height="17.4" rx="1.7" stroke="#05C168" stroke-opacity="0.2" stroke-width="0.6"/>
<path d="M90.8574 70.8502H91.8874V63.6402H90.8974C90.8274 64.3602 90.3574 64.8402 89.3974 64.8402H89.1174V65.6302H90.8574V70.8502ZM95.9596 70.9302C97.4496 70.9302 98.4696 70.0202 98.4696 68.5002C98.4696 67.0702 97.5696 66.1302 96.2396 66.1302C95.3496 66.1302 94.6796 66.5702 94.4496 67.2402H94.3996C94.4096 65.5702 94.7496 64.4502 96.0596 64.4502C96.7696 64.4502 97.2996 64.8102 97.3996 65.4402H98.3996C98.2796 64.2902 97.4296 63.5502 96.0596 63.5502C94.2796 63.5502 93.3596 64.8102 93.3596 67.5202C93.3596 69.7602 94.2596 70.9302 95.9596 70.9302ZM95.9896 70.0302C95.1096 70.0302 94.5296 69.4602 94.5296 68.5102C94.5296 67.6002 95.0796 66.9202 95.9996 66.9202C96.8596 66.9202 97.4296 67.5102 97.4296 68.4602C97.4296 69.4202 96.8596 70.0302 95.9896 70.0302ZM99.4553 70.8502H100.485V69.8002H99.4553V70.8502ZM104.074 70.9202C105.624 70.9202 106.674 70.1502 106.674 68.9302C106.674 68.0502 106.154 67.3402 105.224 67.2302V67.1802C106.134 67.0202 106.554 66.3102 106.554 65.5202C106.554 64.3502 105.614 63.5602 104.074 63.5602C102.544 63.5602 101.604 64.3402 101.604 65.5102C101.604 66.3102 102.044 67.0102 102.944 67.1802V67.2302C102.004 67.3602 101.474 68.1002 101.474 68.9402C101.474 70.1602 102.524 70.9202 104.074 70.9202ZM104.074 66.8002C103.114 66.8002 102.664 66.3102 102.664 65.6102C102.664 64.8802 103.194 64.4202 104.074 64.4202C104.944 64.4202 105.504 64.8702 105.504 65.6102C105.504 66.2802 105.074 66.8002 104.074 66.8002ZM104.074 70.0302C103.184 70.0302 102.584 69.5802 102.584 68.8002C102.584 68.1502 103.044 67.6302 104.074 67.6302C105.094 67.6302 105.574 68.1202 105.574 68.8002C105.574 69.5602 104.994 70.0302 104.074 70.0302ZM108.718 70.8502H109.488L114.118 63.5602H113.348L108.718 70.8502ZM109.038 67.5302C109.918 67.5302 110.508 66.8302 110.508 65.5602C110.508 64.3402 109.958 63.6002 109.058 63.6002C108.158 63.6002 107.568 64.3002 107.568 65.5502C107.568 66.7802 108.118 67.5302 109.038 67.5302ZM109.048 66.9102C108.598 66.9102 108.298 66.5802 108.298 65.5602C108.298 64.5402 108.608 64.2202 109.048 64.2202C109.478 64.2202 109.778 64.5402 109.778 65.5602C109.778 66.5802 109.478 66.9102 109.048 66.9102ZM113.798 70.8902C114.678 70.8902 115.268 70.1902 115.268 68.9302C115.268 67.7002 114.718 66.9502 113.818 66.9502C112.918 66.9502 112.328 67.6602 112.328 68.9102C112.328 70.1402 112.878 70.8902 113.798 70.8902ZM113.808 70.2702C113.358 70.2702 113.058 69.9402 113.058 68.9202C113.058 67.9002 113.358 67.5802 113.808 67.5802C114.228 67.5802 114.528 67.9002 114.528 68.9202C114.528 69.9502 114.228 70.2702 113.808 70.2702Z" fill="#14CA74"/>
<path d="M119.151 70.5169L124.484 65.1836" stroke="#14CA74" stroke-width="0.8" stroke-linecap="round" stroke-linejoin="round"/>
<path d="M124.484 70.2119V65.1836H119.456" stroke="#14CA74" stroke-width="0.8" stroke-linecap="round" stroke-linejoin="round"/>
<path d="M375.315 262.367H377.091L380.271 253.619H378.831L376.707 259.715L376.239 261.131H376.155L375.699 259.703L373.587 253.619H372.123L375.315 262.367ZM381.212 255.047H382.448V253.619H381.212V255.047ZM381.212 262.367H382.448V256.019H381.212V262.367ZM386.805 262.475C388.305 262.475 389.457 261.659 389.625 260.411H388.449C388.293 261.071 387.657 261.491 386.805 261.491C385.701 261.491 384.981 260.747 384.957 259.439H389.661C389.853 257.447 388.845 255.923 386.757 255.923C384.897 255.923 383.733 257.219 383.733 259.223C383.733 261.179 384.897 262.475 386.805 262.475ZM386.745 256.895C387.681 256.895 388.413 257.387 388.449 258.563H384.981C385.077 257.531 385.749 256.895 386.745 256.895ZM391.708 262.367H393.316L394.456 257.591H394.504L395.68 262.367H397.3L398.92 256.019H397.708L396.46 261.143H396.424L395.212 256.019H393.844L392.668 261.131H392.608L391.36 256.019H390.088L391.708 262.367ZM402.54 262.367H403.764V258.743C403.824 257.699 404.46 257.111 405.588 257.111C405.732 257.111 405.876 257.111 405.972 257.123V255.959C405.864 255.947 405.744 255.935 405.6 255.935C404.76 255.935 404.04 256.331 403.764 257.147H403.704L403.644 256.019H402.54V262.367ZM409.504 262.475C411.004 262.475 412.156 261.659 412.324 260.411H411.148C410.992 261.071 410.356 261.491 409.504 261.491C408.4 261.491 407.68 260.747 407.656 259.439H412.36C412.552 257.447 411.544 255.923 409.456 255.923C407.596 255.923 406.432 257.219 406.432 259.223C406.432 261.179 407.596 262.475 409.504 262.475ZM409.444 256.895C410.38 256.895 411.112 257.387 411.148 258.563H407.68C407.776 257.531 408.448 256.895 409.444 256.895ZM413.696 264.371H414.932V261.119H415.004C415.316 261.935 416.108 262.475 417.164 262.475C418.712 262.475 419.756 261.323 419.756 259.199C419.756 257.075 418.712 255.911 417.164 255.911C416.108 255.911 415.316 256.463 415.004 257.267H414.932L414.884 256.019H413.696V264.371ZM416.732 261.455C415.556 261.455 414.944 260.531 414.944 259.547V258.839C414.944 257.855 415.556 256.931 416.732 256.931C417.788 256.931 418.496 257.699 418.496 259.199C418.496 260.687 417.788 261.455 416.732 261.455ZM423.86 262.475C425.768 262.475 426.956 261.143 426.956 259.199C426.956 257.183 425.708 255.923 423.86 255.923C421.94 255.923 420.752 257.255 420.752 259.211C420.752 261.203 422 262.475 423.86 262.475ZM423.86 261.443C422.732 261.443 422.012 260.627 422.012 259.211C422.012 257.747 422.756 256.943 423.86 256.943C425 256.943 425.696 257.771 425.696 259.199C425.696 260.639 424.964 261.443 423.86 261.443ZM428.251 262.367H429.475V258.743C429.535 257.699 430.171 257.111 431.299 257.111C431.443 257.111 431.587 257.111 431.683 257.123V255.959C431.575 255.947 431.455 255.935 431.311 255.935C430.471 255.935 429.751 256.331 429.475 257.147H429.415L429.355 256.019H428.251V262.367ZM434.844 262.367H436.116V261.347H435.252C434.856 261.347 434.712 261.239 434.712 260.819V257.027H436.116V256.019H434.712V254.039L433.476 254.183V256.019H432.276V257.027H433.476V261.047C433.476 261.899 433.8 262.367 434.844 262.367Z" fill="#CB3CFF"/>
<rect x="35.0752" y="251.367" width="38" height="18" rx="2" fill="#05C168" fill-opacity="0.2"/>
<rect x="35.3752" y="251.667" width="37.4" height="17.4" rx="1.7" stroke="#05C168" stroke-opacity="0.2" stroke-width="0.6"/>
<circle cx="42.5752" cy="260.367" r="1.5" fill="#05C168"/>
<path d="M48.9552 263.367H53.5252V262.387H50.0452V256.077H48.9552V263.367ZM54.3323 257.267H55.3623V256.077H54.3323V257.267ZM54.3323 263.367H55.3623V258.077H54.3323V263.367ZM57.9432 263.367H59.2032L61.0832 258.077H59.9732L58.9132 261.337L58.5932 262.477H58.5532L58.2132 261.337L57.1532 258.077H56.0432L57.9432 263.367ZM63.8663 263.457C65.1163 263.457 66.0763 262.777 66.2163 261.737H65.2363C65.1063 262.287 64.5763 262.637 63.8663 262.637C62.9463 262.637 62.3463 262.017 62.3263 260.927H66.2463C66.4063 259.267 65.5663 257.997 63.8263 257.997C62.2763 257.997 61.3063 259.077 61.3063 260.747C61.3063 262.377 62.2763 263.457 63.8663 263.457ZM63.8163 258.807C64.5963 258.807 65.2063 259.217 65.2363 260.197H62.3463C62.4263 259.337 62.9863 258.807 63.8163 258.807Z" fill="#14CA74"/>
<path d="M81.5232 264.367H82.7592V255.715H81.5712C81.4872 256.579 80.9232 257.155 79.7712 257.155H79.4352V258.103H81.5232V264.367ZM87.5379 264.463C89.3979 264.463 90.6579 262.915 90.6579 260.035C90.6579 257.227 89.4579 255.619 87.5499 255.619C85.6539 255.619 84.3819 257.155 84.3819 260.023C84.3819 262.843 85.6059 264.463 87.5379 264.463ZM87.5259 263.407C86.3499 263.407 85.6299 262.411 85.6299 260.035C85.6299 257.647 86.3499 256.663 87.5259 256.663C88.7019 256.663 89.4219 257.659 89.4219 260.035C89.4219 262.411 88.7019 263.407 87.5259 263.407ZM91.9509 264.367H93.1989V262.423L94.3269 261.331L94.7109 261.967L96.2949 264.367H97.7469L95.1909 260.491L97.6509 258.019H96.1149L93.7509 260.455L93.1989 261.055V255.619H91.9509V264.367ZM103.022 264.367H104.534L106.79 258.019H105.458L104.186 261.931L103.802 263.299H103.754L103.346 261.931L102.074 258.019H100.742L103.022 264.367ZM107.619 257.047H108.855V255.619H107.619V257.047ZM107.619 264.367H108.855V258.019H107.619V264.367ZM112.913 264.487C114.569 264.487 115.601 263.863 115.601 262.567C115.601 261.115 114.497 260.827 113.177 260.647C112.097 260.503 111.617 260.311 111.617 259.687C111.617 259.147 112.073 258.775 112.913 258.775C113.729 258.775 114.245 259.123 114.257 259.891H115.469C115.445 258.655 114.497 257.899 112.937 257.899C111.401 257.899 110.381 258.595 110.381 259.807C110.381 261.103 111.377 261.439 112.817 261.643C113.885 261.799 114.341 261.967 114.341 262.675C114.341 263.263 113.861 263.611 112.949 263.611C112.061 263.611 111.425 263.239 111.425 262.375H110.201C110.201 263.635 111.173 264.487 112.913 264.487ZM117.006 257.047H118.242V255.619H117.006V257.047ZM117.006 264.367H118.242V258.019H117.006V264.367ZM121.771 264.367H123.043V263.347H122.179C121.783 263.347 121.639 263.239 121.639 262.819V259.027H123.043V258.019H121.639V256.039L120.403 256.183V258.019H119.203V259.027H120.403V263.047C120.403 263.899 120.727 264.367 121.771 264.367ZM126.771 264.475C128.679 264.475 129.867 263.143 129.867 261.199C129.867 259.183 128.619 257.923 126.771 257.923C124.851 257.923 123.663 259.255 123.663 261.211C123.663 263.203 124.911 264.475 126.771 264.475ZM126.771 263.443C125.643 263.443 124.923 262.627 124.923 261.211C124.923 259.747 125.667 258.943 126.771 258.943C127.911 258.943 128.607 259.771 128.607 261.199C128.607 262.639 127.875 263.443 126.771 263.443ZM131.162 264.367H132.386V260.743C132.446 259.699 133.082 259.111 134.21 259.111C134.354 259.111 134.498 259.111 134.594 259.123V257.959C134.486 257.947 134.366 257.935 134.222 257.935C133.382 257.935 132.662 258.331 132.386 259.147H132.326L132.266 258.019H131.162V264.367ZM137.92 264.487C139.576 264.487 140.608 263.863 140.608 262.567C140.608 261.115 139.504 260.827 138.184 260.647C137.104 260.503 136.624 260.311 136.624 259.687C136.624 259.147 137.08 258.775 137.92 258.775C138.736 258.775 139.252 259.123 139.264 259.891H140.476C140.452 258.655 139.504 257.899 137.944 257.899C136.408 257.899 135.388 258.595 135.388 259.807C135.388 261.103 136.384 261.439 137.824 261.643C138.892 261.799 139.348 261.967 139.348 262.675C139.348 263.263 138.868 263.611 137.956 263.611C137.068 263.611 136.432 263.239 136.432 262.375H135.208C135.208 263.635 136.18 264.487 137.92 264.487Z" fill="#101F26"/>
<path d="M33.8174 236.178L436.48 236.178" stroke="#101F26" stroke-width="0.6"/>
</g>
<defs>
<filter id="filter0_d_1_200" x="0" y="0" width="474" height="290" filterUnits="userSpaceOnUse" color-interpolation-filters="sRGB">
<feFlood flood-opacity="0" result="BackgroundImageFix"/>
<feColorMatrix in="SourceAlpha" type="matrix" values="0 0 0 0 0 0 0 0 0 0 0 0 0 0 0 0 0 0 127 0" result="hardAlpha"/>
<feOffset dy="4"/>
<feGaussianBlur stdDeviation="2"/>
<feComposite in2="hardAlpha" operator="out"/>
<feColorMatrix type="matrix" values="0 0 0 0 0 0 0 0 0 0 0 0 0 0 0 0 0 0 0.25 0"/>
<feBlend mode="normal" in2="BackgroundImageFix" result="effect1_dropShadow_1_200"/>
<feBlend mode="normal" in="SourceGraphic" in2="effect1_dropShadow_1_200" result="shape"/>
</filter>
</defs>
</svg>
