<svg width="102" height="100" viewBox="0 0 102 100" fill="none" xmlns="http://www.w3.org/2000/svg">
<g clip-path="url(#clip0_241_35)">
<path d="M85.0664 0H16.9336C7.58143 0 0 7.61116 0 17V82.84C0 92.2289 7.58143 99.84 16.9336 99.84H85.0664C94.4186 99.84 102 92.2289 102 82.84V17C102 7.61116 94.4186 0 85.0664 0Z" fill="#330000"/>
<path d="M49.4283 59.9156H33.6223L30.4061 69.9448C30.3624 70.1278 30.2564 70.2896 30.1065 70.4025C29.9566 70.5154 29.7721 70.5722 29.5849 70.5632H21.5791C21.1228 70.5632 20.9632 70.3112 21.1002 69.8072L34.7854 30.24C34.9222 29.828 35.0589 29.3587 35.1957 28.832C35.375 27.9152 35.4667 26.984 35.4695 26.05C35.4602 25.9847 35.4661 25.9181 35.4869 25.8554C35.5077 25.7928 35.5427 25.7359 35.5891 25.6892C35.6356 25.6425 35.6922 25.6074 35.7546 25.5865C35.817 25.5656 35.8833 25.5595 35.9484 25.5688H46.8281C47.1469 25.5688 47.3294 25.6835 47.3756 25.9128L62.9079 69.876C63.0447 70.3347 62.9079 70.5637 62.4975 70.5632H53.602C53.4493 70.58 53.2957 70.5404 53.1698 70.452C53.044 70.3635 52.9544 70.2322 52.9178 70.0824L49.4283 59.9156ZM36.0855 51.2604H46.8967L46.7425 50.7496L46.495 49.9408L46.3185 49.3728L46.0368 48.4784L45.438 46.5956L44.9112 44.9264L43.5434 40.5784C43.2029 39.4976 42.8762 38.4124 42.5633 37.3232L42.313 36.4392L42.0206 35.394L41.5743 33.774L41.4907 33.4688H41.4225C41.08 35.1176 40.6631 36.75 40.173 38.3608L39.1578 41.6392L38.5992 43.4504L38.0354 45.284C37.9337 45.6152 37.8321 45.9427 37.7306 46.2664L37.4278 47.2256L37.1266 48.1624L36.8269 49.076L36.5289 49.9668C36.4301 50.2601 36.3314 50.5495 36.2329 50.8348L36.0855 51.2604ZM72.1444 32.8504C71.4466 32.8784 70.7507 32.7583 70.1022 32.4979C69.4537 32.2375 68.8673 31.8427 68.3812 31.3392C67.8967 30.8136 67.5204 30.1972 67.2738 29.5253C67.0272 28.8533 66.9151 28.1391 66.944 27.4236C66.9192 26.7153 67.0435 26.0096 67.3088 25.3528C67.5741 24.6959 67.9744 24.1026 68.4836 23.6116C69.4658 22.6651 70.7738 22.1354 72.1353 22.1328L72.2811 22.1344C73.9235 22.1344 75.2123 22.6267 76.1475 23.6112C76.6195 24.1229 76.9863 24.723 77.2269 25.3772C77.4676 26.0314 77.5774 26.7268 77.55 27.4236C77.579 28.142 77.4637 28.859 77.211 29.5317C76.9583 30.2045 76.5733 30.8193 76.079 31.3396C75.5802 31.8332 74.988 32.2215 74.3374 32.4819C73.6868 32.7422 72.9909 32.8693 72.2907 32.8556L72.1444 32.8504ZM67.423 69.876V37.0408C67.4227 36.6285 67.6052 36.4224 67.9704 36.4224H76.387C76.7517 36.4224 76.9342 36.6285 76.9345 37.0408V69.876C76.9345 70.3347 76.752 70.5637 76.387 70.5632H68.0389C67.6501 70.5632 67.4454 70.3576 67.425 69.9464L67.423 69.876Z" fill="#FF9A00"/>
</g>
<defs>
<clipPath id="clip0_241_35">
<rect width="102" height="100" fill="white"/>
</clipPath>
</defs>
</svg>
