<svg width="50" height="62" viewBox="0 0 50 62" fill="none" xmlns="http://www.w3.org/2000/svg">
<path d="M0.00386098 9.98188C0.0108135 9.96426 0.02611 9.948 0.048358 9.93173C0.277791 9.76095 0.94801 9.90598 1.21916 9.91275C2.54152 9.94799 3.86111 9.95206 5.18348 9.95206C6.9953 9.95206 8.80712 9.94935 10.6189 9.94799C10.8623 9.94799 13.4347 10.009 13.4458 9.94664C13.7657 7.94606 13.7601 5.83841 12.9619 3.96931C12.3543 2.54749 11.1056 0.990127 9.49264 0.584861C9.17839 0.506248 8.49843 0.067096 9.23957 0.0779393C10.3381 0.0942041 11.424 0.2433 12.5239 0.236523C13.7281 0.229746 14.9309 0.203994 16.1351 0.164687C18.6533 0.0847183 21.1715 -0.0304916 23.691 0.00745974C27.1923 0.0603205 30.7423 0.428989 34.0642 1.56075C37.0399 2.57459 40.5676 4.2824 41.8301 7.28869C43.3374 10.8737 41.2962 14.4086 38.7432 16.9568C37.8561 17.8432 36.8841 18.6429 35.883 19.4046C35.381 19.7855 34.8721 20.1569 34.359 20.5242C34.1838 20.6503 33.2271 21.6194 33.0575 21.599C37.4153 22.1236 41.7606 23.7284 44.842 26.7781C48.1166 30.0188 49.6698 34.9078 48.9175 39.3874C47.8983 45.4691 42.6978 50.4339 36.4545 51.3719C30.1444 52.3206 23.7355 48.8047 20.9684 43.2571C20.2231 41.7634 19.7531 40.1396 19.5738 38.4887C19.5668 38.421 19.5599 38.3464 19.596 38.2868C19.6516 38.1933 19.7893 38.1743 19.8908 38.2163C20.3358 38.4033 20.4859 38.9808 20.5499 39.3941C21.2549 43.9863 24.6046 48.2382 29.1655 49.5773C33.7263 50.9164 39.2355 48.9077 41.3268 44.7358C42.0012 43.3899 42.321 41.9003 42.5212 40.4148C43.1289 35.9121 42.6519 31.217 40.2561 27.2457C38.8962 24.9903 36.7965 22.9314 34.1407 22.5546C32.3233 22.2971 30.4628 22.8691 28.8887 23.7921C27.0547 24.8696 25.3861 26.2223 23.9928 27.8095C23.2906 28.6092 22.6579 29.4672 22.1128 30.3766C21.6943 31.0747 21.3953 31.8066 21.0394 32.5345C20.9615 32.693 20.8753 32.853 20.7432 32.9722C20.5805 33.12 20.18 33.2569 20.0326 33.0143C19.8616 32.7323 20.1898 32.1983 20.3066 31.9449C20.5179 31.4854 20.6959 31.0123 20.9253 30.5596C21.3717 29.6786 21.9112 28.8545 22.5147 28.0698C23.8051 26.3904 25.3179 24.8954 26.8864 23.4627C29.7759 20.8224 32.9365 18.2363 34.7567 14.7326C36.5003 11.3752 36.9425 6.66249 34.1129 3.71178C33.0352 2.58815 31.5682 1.87114 30.0442 1.47672C28.5189 1.08365 26.9295 0.995549 25.3513 0.98335C24.0581 0.972507 22.765 1.01317 21.4718 1.05248C20.917 1.06874 20.3622 1.08636 19.806 1.10263C19.3277 1.11754 19.1803 1.36693 19.1983 1.81692C19.2651 3.50982 19.3624 5.20679 19.2359 6.89833C19.1956 7.43236 18.7423 9.71216 19.8116 9.71216C20.1592 9.71216 20.5068 9.71351 20.8544 9.71757C23.2377 9.74333 25.7226 9.77721 28.06 10.2746C29.5882 10.5999 31.1692 10.974 32.5138 11.7846C32.828 11.9743 33.1284 12.1885 33.4009 12.4338C34.3465 13.2918 32.3733 15.2205 31.9659 15.9579C31.7657 16.3197 31.5071 17.0842 31.0009 17.1262C30.6157 17.1587 30.4586 16.5691 30.3641 16.3076C30.1889 15.8237 29.9803 15.3574 29.6813 14.9291C29.1641 14.1918 28.523 13.5479 27.7666 13.041C25.9784 11.8456 23.8065 11.2411 21.6748 10.97C19.8255 10.7341 17.9538 10.7436 16.0933 10.806C15.5914 10.8222 10.9554 10.7124 10.9346 10.9361C10.758 12.9583 10.9374 15.0755 10.9457 17.1086C10.9541 19.2149 10.9624 21.3212 10.9707 23.4275C10.9874 27.5981 11.0041 31.7686 11.0208 35.9392C11.0319 38.7544 11.043 41.5709 11.0542 44.3861C11.0514 43.6799 11.7647 42.6525 12.1276 42.0684C12.5962 41.3148 13.1552 40.614 13.7712 39.9702C16.6203 36.9964 20.4178 35.2304 23.8663 33.0359C26.7988 31.1682 29.609 28.8003 30.8327 25.6002C31.1205 24.8493 31.596 24.1174 32.447 23.9249C33.1534 23.765 33.8751 23.9724 34.5189 24.2529C34.975 24.4522 35.8037 24.7341 35.997 25.2261C36.0735 25.4199 36.0526 25.6395 35.9831 25.836C35.6911 26.6656 34.7094 27.2741 34.0698 27.8326C33.337 28.471 32.5597 29.0578 31.7532 29.6054C30.1722 30.6789 28.4869 31.5992 26.7835 32.4735C23.5089 34.1569 20.1258 35.7115 17.2377 37.9696C15.0088 39.7127 13.0648 41.9369 12.047 44.5677C10.8984 47.5401 10.9165 50.8609 10.911 53.9919C10.9082 55.3052 10.9193 56.6796 11.5422 57.8439C11.9775 58.6572 12.6783 59.2847 13.4764 59.755C13.8227 59.9583 14.1939 60.1129 14.5749 60.2457C14.9281 60.3677 16.3867 60.8502 15.3202 61.1186C14.3469 61.3625 13.329 61.1768 12.339 61.1701C11.3656 61.1646 10.3923 61.166 9.41894 61.1633C7.54594 61.1565 5.67432 61.1579 3.80132 61.1633C2.97675 61.1646 2.09935 61.2555 1.2567 61.1931C0.41406 61.1308 0.774199 60.7241 1.31649 60.4598C1.77536 60.2362 2.29958 60.1332 2.72368 59.8404C3.46065 59.3416 4.15729 58.6965 4.53967 57.89C5.00827 56.8938 5.01384 55.7593 5.01106 54.6641C4.98464 41.6983 4.95682 28.7312 4.93041 15.7654C4.92902 14.9169 4.92207 14.0454 4.60364 13.2565C4.26575 12.4189 3.61082 11.7344 2.84883 11.2424C2.472 10.9984 2.06458 10.7978 1.64187 10.6433C1.1844 10.4752 0.674083 10.4508 0.238856 10.2259C0.117882 10.1635 -0.0336841 10.0686 0.00664045 9.97781L0.00386098 9.98188Z" fill="white"/>
</svg>
