<svg width="102" height="100" viewBox="0 0 102 100" fill="none" xmlns="http://www.w3.org/2000/svg">
<g clip-path="url(#clip0_241_50)">
<path d="M85.0664 0H16.9336C7.58143 0 0 7.61116 0 17V82.84C0 92.2289 7.58143 99.84 16.9336 99.84H85.0664C94.4186 99.84 102 92.2289 102 82.84V17C102 7.61116 94.4186 0 85.0664 0Z" fill="#001E36"/>
<path d="M22.9668 70.0156V26.1204C22.9668 25.8001 23.1037 25.6399 23.3776 25.6396L23.8107 25.6384L24.551 25.6304L25.5798 25.61L29.0262 25.5368L32.7217 25.468C34.0214 25.4453 35.31 25.4339 36.5874 25.4336C40.0538 25.4336 42.9733 25.8687 45.3458 26.7388C47.4863 27.4651 49.4383 28.6619 51.0594 30.242C52.4339 31.6113 53.4961 33.2637 54.1728 35.0852C54.8127 36.8577 55.137 38.7294 55.1311 40.6148C55.1311 44.2791 54.287 47.3016 52.599 49.6824C50.9482 52.0051 48.6456 53.7814 45.9849 54.7848L45.7566 54.8688C42.9783 55.9092 39.9016 56.2852 36.5272 56.3088L36.0029 56.3104L35.2247 56.3064L34.8323 56.3008L34.3948 56.2904L34.131 56.28L33.9708 56.2716L33.5768 56.2572L33.0951 56.2472L32.3699 56.242L32.2086 56.2416V69.9468C32.2205 70.0308 32.2129 70.1165 32.1862 70.197C32.1595 70.2775 32.1144 70.3507 32.0546 70.4107C31.9949 70.4707 31.922 70.5159 31.8418 70.5427C31.7616 70.5695 31.6763 70.5772 31.5926 70.5652H23.4461C23.1263 70.5655 22.9665 70.3823 22.9668 70.0156ZM32.2089 33.8828V48.1996C32.8013 48.2457 33.3485 48.2687 33.8505 48.2684H36.1089C37.6658 48.263 39.2138 48.0303 40.704 47.5776L41.0013 47.4844C42.3571 47.0804 43.5686 46.2934 44.4912 45.2172C45.3486 44.202 45.7927 42.8031 45.8236 41.0204L45.8256 40.8208C45.8614 39.492 45.5172 38.1808 44.833 37.0428C44.1143 35.9419 43.075 35.0903 41.8567 34.604C40.2662 33.9831 38.5672 33.6911 36.8615 33.7456L35.9937 33.748L35.4463 33.7528L34.9239 33.7596L34.1868 33.774L33.6489 33.7892L33.3696 33.7996L32.9963 33.8172L32.6783 33.8368L32.497 33.8512L32.3404 33.8664L32.2715 33.8744L32.2089 33.8828ZM81.5873 45.5964C80.3936 44.9808 79.1275 44.5182 77.8189 44.2196L77.5161 44.154C76.0763 43.8224 74.6065 43.6397 73.1297 43.6088L72.7607 43.6044C71.8949 43.5808 71.0304 43.685 70.1948 43.9136C69.663 44.0328 69.1902 44.3368 68.86 44.772C68.6369 45.1204 68.5182 45.5258 68.5182 45.94C68.5307 46.3416 68.6749 46.7279 68.9285 47.0388C69.2918 47.4651 69.7283 47.8224 70.2175 48.0936L70.3657 48.1724C71.3413 48.6997 72.3465 49.1698 73.3763 49.5804C75.6725 50.3526 77.8668 51.4022 79.9107 52.706C81.3031 53.5882 82.4554 54.804 83.2639 56.244C83.9434 57.6074 84.2838 59.1157 84.256 60.64C84.2966 62.6531 83.7236 64.6305 82.6137 66.3076C81.4253 68.0097 79.7745 69.333 77.8579 70.1196C75.8509 71.0049 73.3863 71.4625 70.4641 71.4924L70.1605 71.494C68.349 71.5121 66.5401 71.3529 64.7593 71.0188L64.3784 70.9444C62.8791 70.6684 61.4196 70.2068 60.0334 69.5704C59.894 69.4983 59.7762 69.3903 59.692 69.2575C59.6079 69.1246 59.5604 68.9717 59.5545 68.8144V61.3272C59.5463 61.2545 59.5579 61.181 59.5881 61.1144C59.6183 61.0478 59.6659 60.9907 59.7258 60.9492C59.7845 60.9157 59.852 60.901 59.9193 60.9072C59.9865 60.9133 60.0503 60.94 60.102 60.9836C61.739 61.9526 63.5166 62.6594 65.3705 63.0788C67.0047 63.4902 68.6811 63.7093 70.3657 63.7316C71.9619 63.7316 73.1364 63.5255 73.8895 63.1132C74.2294 62.9567 74.5169 62.7048 74.7172 62.3879C74.9176 62.0709 75.0223 61.7026 75.0187 61.3272C75.0187 60.7325 74.6765 60.1601 73.9923 59.61C73.7054 59.3796 73.2941 59.1289 72.7583 58.858L72.5021 58.7316L72.2288 58.6024L72.0854 58.5368L71.7849 58.4032L71.6284 58.3352L71.3016 58.1976L71.1315 58.1276L70.7785 57.9856L70.5952 57.9136L70.2155 57.7668L69.8183 57.6176C67.6694 56.8675 65.6322 55.8275 63.7624 54.5264C62.4249 53.5926 61.3236 52.3576 60.5466 50.92C59.874 49.5663 59.5338 48.0706 59.5545 46.558C59.5503 44.7404 60.0476 42.9572 60.9913 41.406C62.0671 39.698 63.6114 38.338 65.439 37.4908C67.4458 36.4839 69.9547 35.98 72.9655 35.9792C74.729 35.965 76.4909 36.0914 78.2345 36.3572C79.497 36.5181 80.7313 36.8533 81.9025 37.3532C82.0909 37.4076 82.2427 37.5472 82.3129 37.7312C82.3595 37.8988 82.3822 38.072 82.3814 38.2464V45.1844C82.3914 45.3484 82.3129 45.5056 82.1762 45.5964C82.0847 45.6421 81.9839 45.6658 81.8818 45.6658C81.7796 45.6658 81.6788 45.6421 81.5873 45.5964Z" fill="#31A8FF"/>
</g>
<defs>
<clipPath id="clip0_241_50">
<rect width="102" height="100" fill="white"/>
</clipPath>
</defs>
</svg>
