<svg width="100" height="100" viewBox="0 0 100 100" fill="none" xmlns="http://www.w3.org/2000/svg">
<g clip-path="url(#clip0_241_43)">
<path d="M76.5625 0H23.4375C10.4933 0 0 10.4933 0 23.4375V76.5625C0 89.5067 10.4933 100 23.4375 100H76.5625C89.5067 100 100 89.5067 100 76.5625V23.4375C100 10.4933 89.5067 0 76.5625 0Z" fill="#F4F2ED"/>
<path d="M13.1698 39.1443C13.1698 39.1443 11.3202 37.8111 13.5397 36.031L18.71 31.4076C18.71 31.4076 20.1897 29.851 21.7538 31.2072L69.4682 67.3318V84.6545C69.4682 84.6545 69.4452 87.3748 65.9541 87.074L13.1698 39.1443Z" fill="#2489CA"/>
<path d="M25.4696 50.3086L13.1712 61.4894C13.1712 61.4894 11.9071 62.4297 13.1712 64.1098L18.8809 69.3031C18.8809 69.3031 20.2372 70.7598 22.2407 69.1027L35.279 59.2164L25.4696 50.3086Z" fill="#1070B3"/>
<path d="M47.0594 50.4025L69.6145 33.1798L69.468 15.9498C69.468 15.9498 68.5047 12.1892 65.2914 14.1466L35.2773 41.4634L47.0594 50.4025Z" fill="#0877B9"/>
<path d="M65.9555 87.0974C67.2656 88.438 68.8531 87.9989 68.8531 87.9989L86.4301 79.3376C88.6801 77.804 88.3641 75.9009 88.3641 75.9009V24.1794C88.3641 21.906 86.0367 21.1204 86.0367 21.1204L70.8027 13.7767C67.4738 11.7193 65.293 14.1466 65.293 14.1466C65.293 14.1466 68.0977 12.1279 69.4695 15.9497V84.3384C69.4713 84.8048 69.3687 85.2657 69.1691 85.6872C68.7684 86.4962 67.8977 87.2513 65.8094 86.9353L65.9555 87.0974Z" fill="#3C99D4"/>
</g>
<defs>
<clipPath id="clip0_241_43">
<rect width="100" height="100" fill="white"/>
</clipPath>
</defs>
</svg>
